# xmcd
#
# Track frame offsets:
#	150
#	18496
#	33692
#	48341
#	63294
#	78037
#	91568
#	105301
#	118510
#	134324
#	150679
#	165178
#	182186
#	198814
#	214918
#	232398
#	249573
#	264172
#	278257
#	293749
#
# Disc length: 4125 seconds
#
# Revision: 1
# Processed by: cddbd v1.5.2PL0 Copyright (c) Steve Scherf et al.
# Submitted via: audiograbber 1.83.01
#
DISCID=00101b14
DTITLE=Various Artist - CDX 610
DYEAR=214
DGENRE=Country
TTITLE0=Mickey Guyton - Better Than You Left Me
TTITLE1=Rachel Holder - I Think Of You
TTITLE2=Little Big Town - Girl Crush
TTITLE3=Mo Pitney - Country
TTITLE4=Miranda Lambert - Little Red Wagon (Single Edit)
TTITLE5=Garth Brooks - Mom (Single Edit
TTITLE6=Frankie Bllard - Young and Crazy
TTITLE7=Jo Dee Messina - He's Messed Up (Radio Edit
TTITLE8=LOCASH - I Love This Life
TTITLE9=Ray Price - I Wish I Was 18 Again
TTITLE10=Rachele Lynae - Whole Lotta Nothin'
TTITLE11=Ryan Chrys and The Rough Cuts - Burnin' It Up At Both Ends
TTITLE12=Diana Upton Hill - Do Love Well (Radio Edit
TTITLE13=Jessica Marie - Don't Let It Bring You Down
TTITLE14=Curtis Braley - Doors Closing Everywhere
TTITLE15=Heather Dickson - Eventually
TTITLE16=Homegrown Band - I'm Gonna Be Me
TTITLE17=Brian Collins - Never Really Left
TTITLE18=Vic Harris Band - Rowdy Ass Cowboy
TTITLE19=Johnny Orr Band - You Can't Hide Love
EXTD=
EXTT0=
EXTT1=
EXTT2=
EXTT3=
EXTT4=
EXTT5=
EXTT6=
EXTT7=
EXTT8=
EXTT9=
EXTT10=
EXTT11=
EXTT12=
EXTT13=
EXTT14=
EXTT15=
EXTT16=
EXTT17=
EXTT18=
EXTT19=
PLAYORDER=
